<svg xmlns="http://www.w3.org/2000/svg" viewBox="0 0 195.91 252"><title>Asset 22</title><g id="Layer_2" data-name="Layer 2"><g id="Layer_1-2" data-name="Layer 1"><path d="M180,252H0V0H180Z" style="fill:#38328a"/><path d="M169.16,51.47a58.77,58.77,0,0,0-58.33,66.59,44.48,44.48,0,1,0-.32,83.92,75.27,75.27,0,0,0,65.22,37.65c1.44,0,2.86,0,4.27-.13v-187A59.12,59.12,0,0,0,169.16,51.47Z" style="fill:#e94266"/><line x1="69.41" y1="84.49" x2="157.88" y2="84.49" style="fill:none;stroke:#fad402;stroke-linecap:round;stroke-miterlimit:10;stroke-width:9px"/><line x1="89.41" y1="104.49" x2="103.16" y2="104.49" style="fill:none;stroke:#fad402;stroke-linecap:round;stroke-miterlimit:10;stroke-width:9px"/><line x1="19.4" y1="124.5" x2="103.16" y2="124.5" style="fill:none;stroke:#fad402;stroke-linecap:round;stroke-miterlimit:10;stroke-width:9px"/><line x1="39.41" y1="144.5" x2="171.41" y2="144.5" style="fill:none;stroke:#fad402;stroke-linecap:round;stroke-miterlimit:10;stroke-width:9px"/><line x1="89.41" y1="184.5" x2="189.33" y2="184.5" style="fill:none;stroke:#fad402;stroke-linecap:round;stroke-miterlimit:10;stroke-width:9px"/><line x1="119.41" y1="124.5" x2="190.91" y2="124.5" style="fill:none;stroke:#fad402;stroke-linecap:round;stroke-miterlimit:10;stroke-width:9px"/><line x1="119.41" y1="104.49" x2="155.24" y2="104.49" style="fill:none;stroke:#fad402;stroke-linecap:round;stroke-miterlimit:10;stroke-width:9px"/><line x1="171.41" y1="104.49" x2="190.91" y2="104.49" style="fill:none;stroke:#fad402;stroke-linecap:round;stroke-miterlimit:10;stroke-width:9px"/><line x1="172.41" y1="84.49" x2="190.91" y2="84.49" style="fill:none;stroke:#fad402;stroke-linecap:round;stroke-miterlimit:10;stroke-width:10px"/><line x1="147.41" y1="164.5" x2="190.91" y2="164.5" style="fill:none;stroke:#fad402;stroke-linecap:round;stroke-miterlimit:10;stroke-width:9px"/><line x1="120.78" y1="164.5" x2="132.24" y2="164.5" style="fill:none;stroke:#fad402;stroke-linecap:round;stroke-miterlimit:10;stroke-width:9px"/></g></g></svg>