<?xml version="1.0" encoding="utf-8"?>
<!-- Generator: Adobe Illustrator 21.1.0, SVG Export Plug-In . SVG Version: 6.00 Build 0)  -->
<svg version="1.1" id="Layer_1" xmlns="http://www.w3.org/2000/svg" xmlns:xlink="http://www.w3.org/1999/xlink" x="0px" y="0px"
	 viewBox="0 0 180 252" style="enable-background:new 0 0 180 252;" xml:space="preserve">
<style type="text/css">
	.st0{fill:#F9D400;}
	.st1{fill:#E84267;}
	.st2{fill:#383288;}
</style>
<title>Untitled-1</title>
<path class="st0" d="M0,0h180v252H0V0z"/>
<path class="st1" d="M75,114.33H26v-8h46.83L75,114.33z"/>
<path class="st1" d="M0,106.33h16v8H0V106.33z"/>
<path class="st1" d="M180,114.33h-36l1.75-8H180V114.33z"/>
<path class="st2" d="M134,114.33H85l-10-48h69L134,114.33z"/>
<path class="st1" d="M0,124.33h62.57v8H0V124.33z"/>
<path class="st1" d="M72.57,124.33h90.11v8H72.57V124.33z"/>
<path class="st1" d="M172.68,124.33H180v8h-7.32V124.33z"/>
<path class="st1" d="M0,142.33h22.57v8H0V142.33z"/>
<path class="st1" d="M32.57,142.33h63.91v8H32.57V142.33z"/>
<path class="st1" d="M0,160.33h50.5v8H0V160.33z"/>
<path class="st1" d="M106.47,142.33h68.17v8h-68.17V142.33z"/>
</svg>
