<svg xmlns="http://www.w3.org/2000/svg" viewBox="0 0 180 252">
    <defs>
        <style>
            .card5_cls-1 { fill: #38328a; } .card5_cls-2 { fill: #e94266; } .card5_cls-3 { fill: #fad402; } #card5eyeopen, #card5eyeclosed { visibility: hidden; opacity: 0; }
        </style>
    </defs>
    <g>
        <path d="M0 0h180v252H0z" class="card5_cls-1"/>
        <g id="card5-group">
            <g id="card5-iris">
                <circle cx="90" cy="126" r="34.63" class="card5_cls-2"/>
                <circle cx="90" cy="126" r="19.3" class="card5_cls-1"/>
                <circle cx="81.83" cy="117.83" r="4.19" class="card5_cls-3"/>
            </g>
            <path id="card5eye" d="M90 23.52c-42.4 0-71.2 10.72-90 22.38v160.2c18.8 11.66 47.6 22.38 90 22.38s71.2-10.72 90-22.38V45.9c-18.8-11.66-47.6-22.38-90-22.38zm64.6 127.1c-9.66 8.15-28.7 17.85-64.6 17.85s-54.94-9.7-64.6-17.84C13 140.17 12 129.13 12 126s1-14.17 13.38-24.64C35.06 93.23 54.1 83.52 90 83.52s54.94 9.7 64.6 17.84C167 111.83 168 122.86 168 126s-1 14.17-13.4 24.64z" class="card5_cls-2"/>
            <path id="card5eyeopen" d="M90 23.52c-42.4 0-71.2 10.72-90 22.38v160.2c18.8 11.66 47.6 22.38 90 22.38s71.2-10.72 90-22.38V45.9c-18.8-11.66-47.6-22.38-90-22.38zm64.6 127.1c-9.66 8.15-28.7 17.85-64.6 17.85s-54.94-9.7-64.6-17.84C13 140.17 12 129.13 12 126s1-14.17 13.38-24.64C35.06 93.23 54.1 83.52 90 83.52s54.94 9.7 64.6 17.84C167 111.83 168 122.86 168 126s-1 14.17-13.4 24.64z" class="card5_cls-2"/>
            <path id="card5eyeclosed" d="M90 23.52c-42.4 0-71.2 10.72-90 22.38v160.2c18.8 11.66 47.6 22.38 90 22.38s71.2-10.72 90-22.38V45.9c-18.8-11.66-47.6-22.38-90-22.38zm64.6 123.17c-9.66 8.12-28.7 17.92-64.6 17.92s-54.94-9.42-64.6-17.56C13 136.6 15.43 129.5 12 126c-2.18-2.25 1.6 15.5 13.38 26.67 9.06 8.6 28.7 14.2 64.6 14.2s53.58-6.35 64.58-15.32c12.6-10.26 15.5-27.88 13.44-25.55-3.86 4.25-1 10.23-13.4 20.7z" class="card5_cls-2"/>
        </g>
    </g>
</svg>