<svg xmlns="http://www.w3.org/2000/svg" viewBox="0 0 180 252"><title>Asset 11</title><g id="Layer_2" data-name="Layer 2"><g id="Layer_1-2" data-name="Layer 1"><path d="M180,252H0V0H180Z" style="fill:#fad402"/><path d="M75,114.33H26v-8H72.83Z" style="fill:#e94266"/><path d="M16,114.33H0v-8H16Z" style="fill:#e94266"/><path d="M180,114.33H144l1.75-8H180Z" style="fill:#e94266"/><path d="M62.57,132.33H0v-8H62.57Z" style="fill:#e94266"/><path d="M162.68,132.33H72.57v-8h90.11Z" style="fill:#e94266"/><path d="M180,132.33h-7.32v-8H180Z" style="fill:#e94266"/><path d="M22.57,150.33H0v-8H22.57Z" style="fill:#e94266"/><path d="M96.47,150.33H32.57v-8H96.47Z" style="fill:#e94266"/><path d="M50.5,168.33H0v-8H50.5Z" style="fill:#e94266"/><path d="M174.64,150.33H106.47v-8h68.17Z" style="fill:#e94266"/><path d="M133.43,114.33H85.16v-8h50.5Z" style="fill:#e94266"/><path d="M134,114.33H85l-10-48h69Z" style="fill:#38328a"/></g></g></svg>